<?xml version="1.0" encoding="utf-8"?>
<!-- Generator: Adobe Illustrator 27.3.1, SVG Export Plug-In . SVG Version: 6.00 Build 0)  -->
<svg version="1.1" id="Layer_1" xmlns="http://www.w3.org/2000/svg" xmlns:xlink="http://www.w3.org/1999/xlink" x="0px" y="0px"
	 viewBox="0 0 200 200" style="enable-background:new 0 0 200 200;" xml:space="preserve">
<style type="text/css">
	.st0{fill:none;}
	.st1{fill:none;stroke:#008080;stroke-width:2;stroke-dasharray:5,5;}
	.st2{fill:#FFFFFF;}
	.st3{fill:#008080;}
</style>
<rect class="st0" width="200" height="200"/>
<path class="st1" d="M20,100h160"/>
<path class="st2" d="M60,148.9L90,52l30,96.9H60z M75,115h30"/>
<circle class="st3" cx="100" cy="100" r="4"/>
<g>
	<path class="st2" d="M174.8,141.7c0.6,1,1,2.2,1,3.7c0,1.9-0.2,3.2-0.7,4.1c-0.5,0.9-1,1.3-1.5,1.3c-0.5,0-1.4-0.2-2.7-0.5
		c-1.3-0.3-2-0.7-2-1.3l-0.5,1h-0.3c-0.3,0-0.7-0.3-1.1-0.9c-0.4-0.6-0.6-0.9-0.7-1.1c-2.7,0.6-5.7,0.8-9,0.8h-10.8
		c-1.6,0-3.8,0.1-6.7,0.3c-1.1,1.1-1.7,1.6-1.9,1.6h-0.1c-1-0.8-2.5-1.2-4.3-1.2l-1.8,0.1c-0.3,0.2-0.5,0.5-0.9,1.1
		c-0.7-0.9-1-1.8-1-2.9c0-0.8,0.2-1.9,0.5-3.2c0.6-1.3,0.9-3.6,0.9-6.9v-1.8c0.6-5.4,1-12.7,1-22.1l-0.1-25.8c0-1.2,0.1-2.8,0.2-4.8
		c0.2-2,0.2-3.5,0.2-4.4l0.2-8.1c0-2.5-0.3-5.1-0.9-7.9c-0.6-2.8-0.9-4.6-1-5.3l-0.8-1v-0.4c0-3.2,1.4-4.8,4.1-4.8
		c2.1,0,3.8,0.6,5.2,1.9c1.4,1.2,2,2.8,2,4.7c-1.5,2.5-2.2,6.3-2.2,11.4l0.1,6.5c0,1.4-0.1,3.4-0.4,6.1c-0.3,2.7-0.4,4.6-0.4,6
		c0,0.8,0.1,2.2,0.3,4.2c0.2,2,0.3,3.6,0.3,4.7l-0.3,9.3v12.6l-0.6,14.5c0,3.4,0.4,6.3,1.3,8.8c0.8,0.1,1.8,0.1,2.9,0.1
		c0.2,0.4,2.1,0.8,5.7,1.2c3.7,0.4,6.3,0.5,7.9,0.5c4.4,0,7.7-0.6,9.9-1.8c0.2,0.2,0.3,0.3,0.3,0.3c0.2,0,0.7-0.2,1.4-0.5
		c0.7-0.4,1.4-0.5,2.1-0.5l1.4,0.3H174.8z"/>
</g>
</svg>
